:SAMPLES-PER-SECOND 30
:FULLY-SPECIFIED
:DEGREES
108
root  -43.5399 40.3407 -6.18294 0.64599 67.4379 -14.0201
RightUpLeg  -27.756 -9.02901 -8.97338
RightLeg  46.8418 -1.64217 -2.20373
RightFoot  -0.805082 -1.03103 11.0274
RightToes  0.00048216 0.542163 -0.142577
Spine  25.7196 4.02805 10.3004
Spine1  2.23001 9.23489 -12.8288
HEad  -47.2599 -6.17284 -7.13691
LeftShoulder1  1.64264 -7.22701 -7.76503
LeftArm  -46.1627 34.9626 6.96234
LeftForeArm  -5.42194 -27.235 -6.34167
LeftHand  -0.25398 0.0180481 5.50724
RightShoulder  4.3461 10.5706 24.7349
RightArm  -13.1115 38.4833 54.7615
RightForeArm  14.2753 -0.957661 3.53825
RightHand  -1.04572 2.53601 -15.5711
LeftUpLeg  -7.03415 -5.99226 2.68234
LeftLeg  16.3366 -5.48246 -1.16864
LeftFoot  -16.4465 0.485911 8.64098
LeftToes  1.0625e-005 4.65855e-005 -8.18498e-006
109
root  -43.2541 40.4628 -5.41634 2.91228 70.7136 -11.0511
RightUpLeg  -30.3361 -7.64094 -9.41115
RightLeg  44.9142 -3.95506 -4.47904
RightFoot  -5.47152 -0.497801 8.8951
RightToes  0.00048216 0.542163 -0.142577
Spine  25.7161 3.99142 12.6761
Spine1  2.50955 9.89307 -13.4929
HEad  -47.0796 -7.65928 -8.75952
LeftShoulder1  1.65327 -7.10491 -8.06586
LeftArm  -52.4769 29.3112 6.72703
LeftForeArm  -4.53628 -38.3905 -9.1471
LeftHand  -0.25398 0.0180481 5.50724
RightShoulder  5.20315 12.2609 26.9552
RightArm  -1.03337 40.0603 65.6529
RightForeArm  26.1414 -0.299379 5.5925
RightHand  -0.656914 0.563503 -12.9989
LeftUpLeg  -5.07094 -4.20344 2.59319
LeftLeg  14.0149 -10.208 -1.79207
LeftFoot  -14.8547 0.313274 7.26009
LeftToes  1.0625e-005 4.65855e-005 -8.18498e-006
110
root  -42.8433 40.4623 -4.59696 5.2021 74.1056 -7.6552
RightUpLeg  -30.7718 -7.67858 -9.424
RightLeg  39.319 -6.0983 -5.64673
RightFoot  -9.50466 -0.174036 7.15908
RightToes  0.00048216 0.542163 -0.142577
Spine  25.6871 3.85781 15.1911
Spine1  3.35833 10.5989 -14.2607
HEad  -46.5668 -8.60331 -10.2534
LeftShoulder1  2.02082 -7.60728 -10.9392
LeftArm  -57.0836 23.7842 6.49421
LeftForeArm  1.29596 -53.2814 -15.186
LeftHand  -0.25398 0.0180481 5.50724
RightShoulder  5.84128 13.1628 29.0571
RightArm  13.8461 40.9163 76.4469
RightForeArm  31.8826 2.09758 9.08467
RightHand  -0.651182 0.361811 -13.2033
LeftUpLeg  -3.2207 -3.78931 2.75761
LeftLeg  13.2911 -13.7361 -2.37705
LeftFoot  -13.7059 0.199628 5.71848
LeftToes  1.0625e-005 4.65855e-005 -8.18498e-006
111
root  -42.2735 40.2825 -3.68365 9.72163 78.2704 -1.5504
RightUpLeg  -28.8652 -9.78964 -9.16342
RightLeg  31.0079 -5.08459 -3.58666
RightFoot  -10.4563 -0.127517 7.07695
RightToes  0.00048216 0.542163 -0.142577
Spine  24.994 3.6836 16.8049
Spine1  4.9511 10.8819 -14.0827
HEad  -45.2749 -9.11941 -11.0588
LeftShoulder1  2.61041 -8.73495 -14.4196
LeftArm  -59.0581 19.264 5.60745
LeftForeArm  20.024 -69.5677 -31.5109
LeftHand  -0.25398 0.0180481 5.50724
RightShoulder  6.11846 13.6506 29.6836
RightArm  34.1298 40.2388 87.0755
RightForeArm  29.3653 8.40885 10.9638
RightHand  -0.597641 0.334915 -12.096
LeftUpLeg  -1.66028 -6.34294 2.7829
LeftLeg  14.5849 -14.9121 -3.23734
LeftFoot  -13.6678 0.181224 4.89835
LeftToes  1.0625e-005 4.65855e-005 -8.18498e-006
112
root  -41.6002 39.9247 -2.65703 28.7544 83.0921 19.3643
RightUpLeg  -26.1336 -11.1717 -9.80762
RightLeg  25.8042 -3.0125 -1.76935
RightFoot  -8.46019 -0.247954 7.70091
RightToes  0.00048216 0.542163 -0.142577
Spine  23.8821 3.61458 17.168
Spine1  6.48778 10.7635 -13.2532
HEad  -43.159 -9.85974 -10.2815
LeftShoulder1  3.21896 -10.1546 -16.8794
LeftArm  -58.1567 14.7382 2.70472
LeftForeArm  88.3978 -79.7218 -90.5073
LeftHand  -0.25398 0.0180481 5.50724
RightShoulder  5.99812 13.9198 28.4052
RightArm  61.5941 38.0485 96.4538
RightForeArm  13.5013 20.0093 7.1153
RightHand  -0.442185 -0.403143 -10.4173
LeftUpLeg  -1.19757 -11.36 2.55651
LeftLeg  18.539 -14.5416 -5.03936
LeftFoot  -14.6572 0.196057 3.9135
LeftToes  1.0625e-005 4.65855e-005 -8.18498e-006
113
root  -40.8906 39.5421 -1.61981 83.1542 85.942 75.7453
RightUpLeg  -23.8423 -10.2844 -10.768
RightLeg  28.1257 -4.86363 -3.11203
RightFoot  -7.52322 -0.262386 6.06768
RightToes  0.00048216 0.542163 -0.142577
Spine  23.157 3.33459 18.1978
Spine1  7.38784 10.6859 -12.9541
HEad  -41.025 -10.9932 -8.47554
LeftShoulder1  3.75398 -11.5245 -18.4021
LeftArm  -52.6767 8.8857 -3.11036
LeftForeArm  162.894 -73.5334 -147.234
LeftHand  -0.25398 0.0180481 5.50724
RightShoulder  5.47458 13.6071 25.881
RightArm  68.4136 36.9277 102.965
RightForeArm  10.1346 28.9157 5.3611
RightHand  -0.71705 0.933833 -12.8073
LeftUpLeg  -2.63851 -13.9504 3.22799
LeftLeg  25.8875 -16.5725 -8.33306
LeftFoot  -14.2265 0.115637 0.98397
LeftToes  1.0625e-005 4.65855e-005 -8.18498e-006
114
root  -40.14 39.2702 -0.690396 148.796 83.3729 143.253
RightUpLeg  -21.3694 -11.4485 -10.2284
RightLeg  33.8794 -8.11791 -6.06605
RightFoot  -10.5473 -0.0881384 1.71998
RightToes  0.00048216 0.542163 -0.142577
Spine  22.5139 2.63594 20.7578
Spine1  7.86261 10.6048 -13.1472
HEad  -39.2524 -11.8386 -7.0439
LeftShoulder1  4.32729 -12.648 -20.3352
LeftArm  -42.8872 3.19901 -11.5415
LeftForeArm  -167.233 -69.7192 -156.827
LeftHand  -0.25398 0.0180481 5.50724
RightShoulder  4.78188 12.6572 23.3784
RightArm  69.0564 37.1485 107.658
RightForeArm  12.26 34.4901 6.99317
RightHand  -1.66561 5.41913 -18.1679
LeftUpLeg  -6.55651 -14.9352 5.35365
LeftLeg  36.2139 -17.2022 -12.7542
LeftFoot  -8.84597 0.159848 -3.55848
LeftToes  1.0625e-005 4.65855e-005 -8.18498e-006
115
root  -39.3083 39.1657 0.0800341 166.202 78.7276 162.098
RightUpLeg  -17.8219 -15.9262 -9.00882
RightLeg  36.2355 -9.29561 -7.50446
RightFoot  -15.1121 -0.0744044 0.57605
RightToes  0.00048216 0.542163 -0.142577
Spine  21.2101 2.02083 23.3204
Spine1  8.13368 10.3106 -12.8406
HEad  -37.4824 -11.7329 -6.04848
LeftShoulder1  5.0958 -13.4718 -23.7526
LeftArm  -34.7782 1.506 -20.8061
LeftForeArm  -160.943 -73.7151 -151.015
LeftHand  -0.25398 0.0180481 5.50724
RightShoulder  4.36901 11.7879 22.3161
RightArm  71.1092 37.7071 109.846
RightForeArm  15.8651 35.3498 7.0271
RightHand  -2.24587 7.72761 -20.1604
LeftUpLeg  -12.196 -14.534 7.41385
LeftLeg  46.5683 -13.2088 -14.0042
LeftFoot  1.3007 0.806751 -7.43543
LeftToes  1.0625e-005 4.65855e-005 -8.18498e-006
116
root  -38.3579 39.2544 0.754386 169.989 75.4021 166.822
RightUpLeg  -13.5993 -20.5942 -8.52343
RightLeg  34.2938 -8.76339 -6.65242
RightFoot  -16.7073 -0.0380692 1.60438
RightToes  0.00048216 0.542163 -0.142577
Spine  19.7445 2.07334 24.1388
Spine1  8.21983 10.2031 -12.3641
HEad  -36.0519 -10.7511 -4.61436
LeftShoulder1  5.93447 -13.8239 -28.1626
LeftArm  -33.3166 5.05724 -29.1028
LeftForeArm  167.485 -80.5762 -120.842
LeftHand  -0.25398 0.0180481 5.50724
RightShoulder  4.43199 11.6273 23.0654
RightArm  72.0241 37.968 108.692
RightForeArm  20.0603 31.5159 5.74482
RightHand  -1.52412 5.02461 -17.016
LeftUpLeg  -17.4308 -12.0279 7.6068
LeftLeg  54.4515 -6.74005 -9.5444
LeftFoot  9.5299 1.41795 -8.10408
LeftToes  1.0625e-005 4.65855e-005 -8.18498e-006
117
root  -37.2883 39.6106 1.41753 168.051 73.8862 165.538
RightUpLeg  -9.12032 -23.3649 -8.93697
RightLeg  30.9715 -8.63076 -5.85889
RightFoot  -18.097 -0.0742861 0.918086
RightToes  0.00048216 0.542163 -0.142577
Spine  19.0815 2.62339 23.3588
Spine1  8.3295 10.7178 -13.0412
HEad  -36.0721 -9.55912 -3.12611
LeftShoulder1  6.44275 -13.5759 -31.6861
LeftArm  -35.8224 10.7892 -35.4399
LeftForeArm  83.7869 -78.406 -48.9603
LeftHand  -0.25398 0.0180481 5.50724
RightShoulder  4.70216 11.9291 24.3097
RightArm  71.1481 37.6274 104.763
RightForeArm  18.3702 25.2388 4.74441
RightHand  -0.713999 1.04203 -13.2394
LeftUpLeg  -20.9033 -7.05831 5.52446
LeftLeg  59.5886 -2.08641 -3.38821
LeftFoot  10.7045 1.08231 -5.82715
LeftToes  1.0625e-005 4.65855e-005 -8.18498e-006
118
root  -36.1833 40.1082 2.03763 164.887 72.9783 162.775
RightUpLeg  -4.48916 -24.6565 -9.8776
RightLeg  27.3988 -9.77279 -5.38033
RightFoot  -20.5079 -0.22275 -1.08021
RightToes  0.00048216 0.542163 -0.142577
Spine  19.0778 3.07977 22.5555
Spine1  8.4799 11.503 -14.9699
HEad  -37.8317 -8.93032 -2.88355
LeftShoulder1  6.49885 -13.1213 -33.0469
LeftArm  -36.3176 14.0986 -38.1225
LeftForeArm  35.8225 -60.1388 -16.9416
LeftHand  -0.25398 0.0180481 5.50724
RightShoulder  4.86168 12.1932 24.8377
RightArm  62.7582 36.7492 98.8986
RightForeArm  14.0797 18.4485 6.9004
RightHand  -0.680792 0.237264 -13.926
LeftUpLeg  -23.4727 -1.1698 2.10765
LeftLeg  61.7291 -0.189819 0.166614
LeftFoot  7.37584 0.634376 -4.15597
LeftToes  1.0625e-005 4.65855e-005 -8.18498e-006
119
root  -35.11 40.4676 2.57306 163.671 71.4309 161.338
RightUpLeg  -0.181651 -23.1912 -11.1333
RightLeg  23.4431 -13.4334 -3.57761
RightFoot  -21.9087 -0.199077 -0.549516
RightToes  0.00048216 0.542163 -0.142577
Spine  18.8019 3.24116 22.0566
Spine1  8.3438 11.8234 -16.8981
HEad  -40.389 -9.02405 -3.93345
LeftShoulder1  6.50032 -13.09 -33.1324
LeftArm  -30.7161 14.2074 -37.0079
LeftForeArm  12.172 -31.5839 -5.90423
LeftHand  -0.25398 0.0180481 5.50724
RightShoulder  4.99429 12.4245 25.2339
RightArm  43.2801 35.1972 91.0007
RightForeArm  19.0697 11.8086 11.233
RightHand  -1.03474 1.99371 -16.4558
LeftUpLeg  -26.5935 3.29042 -1.89772
LeftLeg  61.166 0.317601 1.20384
LeftFoot  4.33225 0.689064 -5.20826
LeftToes  1.0625e-005 4.65855e-005 -8.18498e-006
